<svg id="qbitkit-logo" xmlns="http://www.w3.org/2000/svg" viewBox="0 0 173.68 69.99"><defs><style>.cls-1{fill:#326a8c;stroke:#326a8c;stroke-width:0.25px;}.cls-1,.cls-2{stroke-miterlimit:10;}.cls-2{fill:#f205cb;stroke:#f205cb;}</style></defs><path class="cls-1" d="M4.09,38.26a.64.64,0,0,1,0,1.28.64.64,0,1,1,0-1.28Zm.13-2.56a.64.64,0,0,1,0,1.28.64.64,0,1,1,0-1.28Zm.13,5.06a.64.64,0,1,1,0,1.28.64.64,0,1,1,0-1.28Zm.32-7.36a.64.64,0,0,1,0,1.28.64.64,0,1,1,0-1.28Zm.25,9.72a.64.64,0,0,1,0,1.28.64.64,0,0,1,0-1.28ZM5.5,31a.64.64,0,0,1,0,1.28A.64.64,0,1,1,5.5,31Zm.32,14.47a.64.64,0,0,1,0,1.28.64.64,0,0,1,0-1.28Zm.83-16.71a.64.64,0,0,1,0,1.28.64.64,0,1,1,0-1.28ZM7,47.6a.64.64,0,0,1,0,1.28A.64.64,0,1,1,7,47.6ZM8.06,26.74a.64.64,0,0,1,0,1.28.64.64,0,1,1,0-1.28Zm.71,23a.64.64,0,0,1,0,1.28.64.64,0,1,1,0-1.28ZM9.73,25a.64.64,0,1,1,0,1.28.64.64,0,1,1,0-1.28Zm1.15,26.56a.64.64,0,0,1,0,1.28.64.64,0,0,1,0-1.28Zm.83-28a.64.64,0,1,1,0,1.28.64.64,0,0,1,0-1.28ZM13.31,53a.64.64,0,0,1,0,1.28.64.64,0,1,1,0-1.28Zm.57-30.46a.64.64,0,0,1,0,1.28.64.64,0,0,1,0-1.28Zm2,31.29a.64.64,0,1,1,0,1.28.64.64,0,1,1,0-1.28Zm.51-32.06a.64.64,0,1,1-.64.64A.56.56,0,0,1,16.38,21.75Zm2.05,32.38a.64.64,0,0,1,0,1.28.64.64,0,1,1,0-1.28Zm.51-32.64a.64.64,0,1,1-.64.64A.57.57,0,0,1,18.94,21.49Zm2,32.39a.64.64,0,1,1-.64.64A.56.56,0,0,1,21,53.88Zm.38-32.13a.64.64,0,1,1,0,1.28.64.64,0,0,1,0-1.28Zm2.18.77a.64.64,0,1,1-.64.64A.56.56,0,0,1,23.55,22.52Zm0,30.46a.64.64,0,1,1-.64.64A.56.56,0,0,1,23.55,53Zm2.11-29.63A.64.64,0,1,1,25,24,.56.56,0,0,1,25.66,23.35Zm.13,28.35a.64.64,0,1,1-.64.64A.57.57,0,0,1,25.79,51.7Zm1.73-27a.64.64,0,0,1,0,1.28.64.64,0,0,1,0-1.28Zm.19,25.47a.64.64,0,0,1,0,1.28.64.64,0,1,1,0-1.28Zm1.66-23.87a.64.64,0,1,1-.64.64A.57.57,0,0,1,29.37,26.29Zm0,21.89a.64.64,0,1,1-.64.64A.56.56,0,0,1,29.37,48.18Zm1.54-20a.64.64,0,1,1-.64.64A.57.57,0,0,1,30.91,28.15ZM31,46.2a.64.64,0,1,1,0,1.28.64.64,0,1,1,0-1.28Zm1.8-24.26a.64.64,0,0,1,0,1.28.64.64,0,1,1,0-1.28Zm0,2.56a.64.64,0,0,1,0,1.28.64.64,0,1,1,0-1.28Zm0,2.56a.64.64,0,0,1,0,1.28.64.64,0,1,1,0-1.28Zm0,2.56a.64.64,0,0,1,0,1.28.64.64,0,1,1,0-1.28Zm0,2.56a.64.64,0,0,1,0,1.28.64.64,0,1,1,0-1.28Zm0,2.56a.64.64,0,0,1,0,1.28.64.64,0,1,1,0-1.28Zm0,2.56a.64.64,0,0,1,0,1.28.64.64,0,1,1,0-1.28Zm0,2.5a.64.64,0,0,1,0,1.28.64.64,0,1,1,0-1.28Zm0,2.56a.64.64,0,0,1,0,1.28.64.64,0,1,1,0-1.28Zm0,2.56a.64.64,0,0,1,0,1.28.64.64,0,1,1,0-1.28Zm0,2.36a.64.64,0,0,1,0,1.28.64.64,0,1,1,0-1.28Zm0,2.56a.64.64,0,0,1,0,1.28.64.64,0,1,1,0-1.28Zm0,2.56a.64.64,0,0,1,0,1.28.64.64,0,1,1,0-1.28Zm0,2.76a.64.64,0,0,1,0,1.28.64.64,0,1,1,0-1.28Zm0,2.49a.64.64,0,0,1,0,1.28.64.64,0,1,1,0-1.28Zm0,2.56a.64.64,0,0,1,0,1.28.64.64,0,1,1,0-1.28Zm0,2.31a.64.64,0,0,1,0,1.28.64.64,0,1,1,0-1.28Zm0,2.43a.64.64,0,0,1,0,1.28.64.64,0,1,1,0-1.28Zm0,2.37a.64.64,0,0,1,0,1.28.64.64,0,1,1,0-1.28Z"/><path class="cls-1" d="M45.05,9.78a.56.56,0,0,1-.64-.64.64.64,0,0,1,1.28,0A.56.56,0,0,1,45.05,9.78Zm0,2.37a.57.57,0,0,1-.64-.64.64.64,0,1,1,1.28,0A.57.57,0,0,1,45.05,12.15Zm0,2.43a.56.56,0,0,1-.64-.64.64.64,0,0,1,1.28,0A.56.56,0,0,1,45.05,14.58Zm0,2.3a.64.64,0,1,1,.64-.64A.56.56,0,0,1,45.05,16.88Zm0,2.56a.64.64,0,1,1,.64-.64A.56.56,0,0,1,45.05,19.44Zm0,2.5a.64.64,0,1,1,.64-.64A.56.56,0,0,1,45.05,21.94Zm0,2.75a.64.64,0,1,1,.64-.64A.56.56,0,0,1,45.05,24.69Zm0,2.56a.64.64,0,1,1,.64-.64A.56.56,0,0,1,45.05,27.25Zm0,2.56a.64.64,0,1,1,.64-.64A.56.56,0,0,1,45.05,29.81Zm0,2.37a.64.64,0,1,1,.64-.64A.56.56,0,0,1,45.05,32.18Zm0,2.56a.64.64,0,1,1,.64-.64A.56.56,0,0,1,45.05,34.74Zm0,2.56a.64.64,0,1,1,.64-.64A.56.56,0,0,1,45.05,37.3Zm0,2.5a.64.64,0,1,1,.64-.64A.57.57,0,0,1,45.05,39.8Zm0,2.56a.64.64,0,1,1,.64-.64A.57.57,0,0,1,45.05,42.36Zm0,2.56a.64.64,0,1,1,.64-.64A.57.57,0,0,1,45.05,44.92Zm0,2.56a.64.64,0,1,1,.64-.64A.57.57,0,0,1,45.05,47.48Zm0,2.56a.64.64,0,1,1,.64-.64A.57.57,0,0,1,45.05,50Zm0,2.56a.64.64,0,1,1,.64-.64A.57.57,0,0,1,45.05,52.6Zm0,2.56a.64.64,0,1,1,.64-.64A.57.57,0,0,1,45.05,55.16ZM46.84,30.9a.64.64,0,1,1,.64-.64A.57.57,0,0,1,46.84,30.9ZM46.91,49a.64.64,0,1,1,.64-.64A.57.57,0,0,1,46.91,49Zm1.53-20a.64.64,0,0,1,0-1.28.64.64,0,0,1,0,1.28Zm0,21.88a.64.64,0,1,1,.64-.64A.57.57,0,0,1,48.44,50.8Zm1.67-23.87a.64.64,0,0,1,0-1.28.64.64,0,0,1,0,1.28ZM50.3,52.4a.64.64,0,1,1,.64-.64A.56.56,0,0,1,50.3,52.4ZM52,25.4a.64.64,0,1,1,.64-.64A.57.57,0,0,1,52,25.4Zm.13,28.35a.64.64,0,1,1,.64-.64A.57.57,0,0,1,52.16,53.75Zm2.11-29.63a.64.64,0,1,1,.64-.64A.57.57,0,0,1,54.27,24.12Zm0,30.46a.64.64,0,1,1,.64-.64A.56.56,0,0,1,54.27,54.58Zm2.17.77a.64.64,0,0,1,0-1.28.64.64,0,0,1,0,1.28Zm.39-32.13a.64.64,0,1,1,.64-.64A.56.56,0,0,1,56.83,23.22ZM58.88,55.6a.64.64,0,0,1,0-1.28.64.64,0,0,1,0,1.28ZM59.39,23a.64.64,0,0,1,0-1.28.64.64,0,0,1,0,1.28Zm2,32.39a.64.64,0,1,1,.64-.64A.57.57,0,0,1,61.44,55.35ZM62,23.28A.64.64,0,0,1,62,22a.64.64,0,0,1,0,1.28Zm2,31.3a.64.64,0,1,1,.64-.64A.57.57,0,0,1,63.93,54.58Zm.58-30.46a.64.64,0,1,1,.64-.64A.57.57,0,0,1,64.51,24.12Zm1.6,29.37a.64.64,0,1,1,0-1.28.64.64,0,1,1,0,1.28Zm.83-28a.64.64,0,1,1,.64-.64A.56.56,0,0,1,66.94,25.52Zm1.15,26.56a.64.64,0,1,1,.64-.64A.57.57,0,0,1,68.09,52.08Zm1-24.7a.64.64,0,1,1,.64-.64A.56.56,0,0,1,69.05,27.38Zm.71,23a.64.64,0,1,1,.64-.64A.57.57,0,0,1,69.76,50.36Zm1.08-20.87a.64.64,0,1,1,.64-.64A.57.57,0,0,1,70.84,29.49Zm.32,18.88a.64.64,0,1,1,.64-.64A.57.57,0,0,1,71.16,48.37ZM72,31.67a.64.64,0,1,1,.64-.64A.57.57,0,0,1,72,31.67Zm.32,14.46a.64.64,0,0,1,0-1.28.64.64,0,0,1,0,1.28ZM72.89,34a.64.64,0,1,1,.64-.64A.57.57,0,0,1,72.89,34Zm.26,9.73a.64.64,0,1,1,.64-.64A.56.56,0,0,1,73.15,43.7Zm.32-7.36a.64.64,0,1,1,.64-.64A.56.56,0,0,1,73.47,36.34Zm.13,5.06a.64.64,0,1,1,.64-.64A.57.57,0,0,1,73.6,41.4Zm.12-2.56a.64.64,0,0,1,0-1.28.64.64,0,0,1,0,1.28Z"/><path class="cls-1" d="M83.9,9.78a.56.56,0,0,1-.64-.64.64.64,0,1,1,1.28,0A.56.56,0,0,1,83.9,9.78Zm0,2.37a.57.57,0,0,1-.64-.64.64.64,0,1,1,1.28,0A.57.57,0,0,1,83.9,12.15Zm0,2.24a.57.57,0,0,1-.64-.64.64.64,0,0,1,1.28,0A.57.57,0,0,1,83.9,14.39Zm0,8.83a.64.64,0,1,1,.64-.64A.56.56,0,0,1,83.9,23.22Zm0,2.37a.64.64,0,1,1,.64-.64A.57.57,0,0,1,83.9,25.59Zm0,2.56a.64.64,0,1,1,.64-.64A.57.57,0,0,1,83.9,28.15Zm0,2.3a.64.64,0,1,1,.64-.64A.56.56,0,0,1,83.9,30.45Zm0,2.37a.64.64,0,1,1,.64-.64A.56.56,0,0,1,83.9,32.82Zm0,2.43a.64.64,0,1,1,.64-.64A.56.56,0,0,1,83.9,35.25Zm0,2.56a.64.64,0,1,1,.64-.64A.56.56,0,0,1,83.9,37.81Zm0,2.63a.64.64,0,1,1,.64-.64A.57.57,0,0,1,83.9,40.44Zm0,2.56a.64.64,0,1,1,.64-.64A.57.57,0,0,1,83.9,43Zm0,2.56a.64.64,0,1,1,.64-.64A.57.57,0,0,1,83.9,45.56Zm0,2.43a.64.64,0,1,1,.64-.64A.57.57,0,0,1,83.9,48Zm0,2.69a.64.64,0,1,1,.64-.64A.57.57,0,0,1,83.9,50.68Zm0,2.3a.64.64,0,1,1,.64-.64A.56.56,0,0,1,83.9,53Zm0,2.24a.64.64,0,1,1,.64-.64A.56.56,0,0,1,83.9,55.22Z"/><path class="cls-1" d="M92.6,23.41a.64.64,0,1,1,.64-.64A.57.57,0,0,1,92.6,23.41Zm2.37,0a.64.64,0,1,1,.64-.64A.56.56,0,0,1,95,23.41Zm2.75-11.26a.57.57,0,0,1-.64-.64.64.64,0,1,1,1.28,0A.57.57,0,0,1,97.72,12.15Zm0,2.43a.57.57,0,0,1-.64-.64.64.64,0,1,1,1.28,0A.56.56,0,0,1,97.72,14.58Zm0,2.43a.64.64,0,1,1,.64-.64A.57.57,0,0,1,97.72,17Zm0,2.56a.64.64,0,1,1,.64-.64A.57.57,0,0,1,97.72,19.57Zm0,2.69a.64.64,0,1,1,.64-.64A.57.57,0,0,1,97.72,22.26Zm0,2.43a.64.64,0,1,1,.64-.64A.57.57,0,0,1,97.72,24.69Zm0,2.56a.64.64,0,1,1,.64-.64A.57.57,0,0,1,97.72,27.25Zm0,2.56a.64.64,0,1,1,.64-.64A.57.57,0,0,1,97.72,29.81Zm0,2.37a.64.64,0,1,1,.64-.64A.57.57,0,0,1,97.72,32.18Zm0,2.56a.64.64,0,1,1,.64-.64A.57.57,0,0,1,97.72,34.74Zm0,2.56a.64.64,0,1,1,.64-.64A.57.57,0,0,1,97.72,37.3Zm0,2.5a.64.64,0,1,1,0-1.28.64.64,0,1,1,0,1.28Zm0,2.56a.64.64,0,0,1,0-1.28.64.64,0,0,1,0,1.28Zm0,2.56a.64.64,0,0,1,0-1.28.64.64,0,0,1,0,1.28Zm0,2.56a.64.64,0,0,1,0-1.28.64.64,0,0,1,0,1.28Zm0,2.56a.64.64,0,0,1,0-1.28.64.64,0,0,1,0,1.28Zm.39,2.43a.64.64,0,1,1,.64-.64A.57.57,0,0,1,98.11,52.47Zm1.41,1.85a.64.64,0,1,1,.63-.64A.56.56,0,0,1,99.52,54.32Zm.63-30.91a.64.64,0,0,1,0-1.28.64.64,0,0,1,0,1.28Zm1.54,31.75a.64.64,0,1,1,.64-.64A.57.57,0,0,1,101.69,55.16Zm.9-31.75a.64.64,0,0,1,0-1.28.64.64,0,0,1,0,1.28ZM104,55.16a.64.64,0,1,1,0-1.28.64.64,0,0,1,0,1.28Zm1.15-31.75a.64.64,0,0,1,0-1.28.64.64,0,0,1,0,1.28Zm1.08,31.17a.64.64,0,1,1,.64-.64A.57.57,0,0,1,106.23,54.58Zm2-.9a.64.64,0,1,1,.64-.64A.57.57,0,0,1,108.28,53.68Z"/><path class="cls-2" d="M139.58,55.22l-14.14-19-9,8.19V55.22h-1.28V8.5h1.28V42.68l22.66-20.55h1.72L126.4,35.32l14.71,19.9Z"/><path class="cls-2" d="M147.64,13.43V8.5h1.28v4.93Zm0,41.79V22h1.28V55.22Z"/><path class="cls-2" d="M172.6,53.68a9.51,9.51,0,0,1-1.76,1,14.56,14.56,0,0,1-1.89.61,9.52,9.52,0,0,1-2.43.29,6.19,6.19,0,0,1-4-1.41,4.55,4.55,0,0,1-1.73-3.71V23.28H156V22h4.8V10.42H162V22h8v1.28h-8V50.42a3.69,3.69,0,0,0,1.47,2.85,5,5,0,0,0,3,1,9,9,0,0,0,2-.22,11.85,11.85,0,0,0,1.7-.52,7.47,7.47,0,0,0,1.15-.54c.27-.17.43-.28.48-.32Z"/></svg>